PathFileType	4	(X/Y/Z)	/tmp/tmpjnq7zxqp/Me/MarkerData/squat03_segment_0.trc
DataRate	CameraRate	NumFrames	NumMarkers	Units	OrigDataRate	OrigDataStartFrame	OrigNumFrames
100.201	100.201	9	38	m	100.201	374	499
Frame#	Time	C7			CLAV			LANK			LASI			LBHD			LELB			LFHD			LFIN			LFRM			LHEE			LKNE			LPSI			LSHO			LTHI			LTIB			LTOE			LUPA			LWRA			LWRB			RANK			RBAK			RBHD			RELB			RFHD			RFIN			RFRM			RHEE			RKNE			RPSI			RSHO			RTHI			RTIB			RTOE			RUPA			RWRA			RWRB			STRN			T10		
		X1	Y1	Z1	X2	Y2	Z2	X3	Y3	Z3	X4	Y4	Z4	X5	Y5	Z5	X6	Y6	Z6	X7	Y7	Z7	X8	Y8	Z8	X9	Y9	Z9	X10	Y10	Z10	X11	Y11	Z11	X12	Y12	Z12	X13	Y13	Z13	X14	Y14	Z14	X15	Y15	Z15	X16	Y16	Z16	X17	Y17	Z17	X18	Y18	Z18	X19	Y19	Z19	X20	Y20	Z20	X21	Y21	Z21	X22	Y22	Z22	X23	Y23	Z23	X24	Y24	Z24	X25	Y25	Z25	X26	Y26	Z26	X27	Y27	Z27	X28	Y28	Z28	X29	Y29	Z29	X30	Y30	Z30	X31	Y31	Z31	X32	Y32	Z32	X33	Y33	Z33	X34	Y34	Z34	X35	Y35	Z35	X36	Y36	Z36	X37	Y37	Z37	X38	Y38	Z38

375	3.73251	-0.141224	1.2694	-0.017953	-0.301999	1.18024	-0.0065509	-0.180524	0.0939342	0.213994	-0.102865	0.81891	0.162688	-0.206343	1.40081	0.0720488	-0.433169	0.992649	0.272861	-0.311238	1.47894	0.0551506	-0.565641	1.07634	0.0341097	-0.537171	0.971146	0.155941	-0.116767	0.0588374	0.150984	-0.370877	0.440223	0.257857	0.0265858	0.84654	0.0369314	-0.224904	1.2559	0.161422	-0.236548	0.582254	0.246462	-0.248035	0.221738	0.24809	-0.352355	0.0721831	0.187118	-0.316737	1.12276	0.256881	-0.528072	0.99129	0.0474492	-0.592679	1.00345	0.0821289	-0.172922	0.0979854	-0.193848	-0.105844	1.15216	-0.152199	-0.200306	1.39889	-0.0768496	-0.405341	0.971104	-0.28936	-0.304844	1.46708	-0.0742842	-0.568759	1.06851	-0.0669023	-0.470058	0.953419	-0.2311	-0.114468	0.0581052	-0.11683	-0.345886	0.45343	-0.264464	0.0227901	0.841773	-0.0243951	-0.252671	1.24859	-0.179532	-0.14554	0.700246	-0.200001	-0.288578	0.33482	-0.271003	-0.336957	0.0708125	-0.183968	-0.354967	1.04778	-0.273918	-0.507807	0.982614	-0.0653771	-0.574081	0.979597	-0.0994738	-0.30962	1.01451	0.0025939	-0.0575013	1.06888	-0.01095
376	3.74248	-0.140312	1.27356	-0.0180849	-0.301464	1.18522	-0.00668392	-0.180489	0.0939418	0.213986	-0.104455	0.822637	0.162507	-0.205102	1.40541	0.0718962	-0.43153	0.996546	0.273227	-0.309814	1.48377	0.0549687	-0.564702	1.07832	0.0340034	-0.535563	0.974115	0.156531	-0.116754	0.0588448	0.150982	-0.370187	0.440689	0.257207	0.0252256	0.849948	0.0369859	-0.223934	1.26044	0.161353	-0.237188	0.5839	0.246128	-0.248115	0.221805	0.248062	-0.35234	0.072233	0.187095	-0.315618	1.12714	0.25708	-0.526695	0.994099	0.0479102	-0.591364	1.00585	0.0826969	-0.172866	0.0981499	-0.193923	-0.105343	1.15611	-0.15224	-0.199035	1.4034	-0.0769903	-0.40365	0.975158	-0.289688	-0.303422	1.47185	-0.0744235	-0.567834	1.07048	-0.0668393	-0.468385	0.956937	-0.231609	-0.11446	0.0580973	-0.11682	-0.345188	0.454046	-0.263967	0.0213946	0.845121	-0.0243608	-0.25172	1.25326	-0.179711	-0.146851	0.702736	-0.199998	-0.287815	0.335349	-0.270636	-0.336876	0.0708887	-0.184034	-0.353846	1.05201	-0.274053	-0.506535	0.985026	-0.0657895	-0.572701	0.982032	-0.100114	-0.309949	1.01946	0.00239596	-0.0575625	1.07253	-0.0110724
377	3.75246	-0.139432	1.27768	-0.0181968	-0.300964	1.19021	-0.00681318	-0.180445	0.0939446	0.213992	-0.106061	0.826313	0.162469	-0.203973	1.41004	0.0716868	-0.429821	1.00036	0.273574	-0.308413	1.48863	0.0548284	-0.563848	1.08019	0.0338919	-0.53387	0.976971	0.157159	-0.116753	0.0588444	0.150981	-0.369494	0.441218	0.256557	0.0238004	0.853326	0.0370082	-0.222967	1.265	0.161304	-0.237784	0.585532	0.245843	-0.247994	0.222021	0.247942	-0.352321	0.0722716	0.187055	-0.314462	1.13149	0.257227	-0.525263	0.996768	0.0483941	-0.589994	1.0081	0.0832879	-0.172811	0.0982529	-0.193991	-0.104814	1.16003	-0.152247	-0.197817	1.40791	-0.0770358	-0.40192	0.979187	-0.290022	-0.302021	1.47661	-0.0745859	-0.566999	1.0723	-0.0667612	-0.466487	0.960378	-0.232126	-0.114461	0.0581018	-0.116811	-0.344446	0.454671	-0.263513	0.0200494	0.848486	-0.024389	-0.250747	1.25794	-0.179913	-0.14815	0.705239	-0.200054	-0.287017	0.335877	-0.270246	-0.336773	0.0709308	-0.184121	-0.352654	1.05623	-0.274219	-0.505523	0.987189	-0.0662668	-0.571278	0.984351	-0.100775	-0.310295	1.02444	0.00222213	-0.0576717	1.07618	-0.0112113
378	3.76244	-0.138599	1.28176	-0.0183067	-0.300506	1.19519	-0.00692723	-0.180414	0.0939425	0.214007	-0.107653	0.829967	0.162515	-0.2029	1.41466	0.0715217	-0.427999	1.00409	0.273887	-0.30702	1.49351	0.0547054	-0.563094	1.08192	0.0338	-0.532101	0.979692	0.157822	-0.116753	0.0588151	0.151023	-0.368844	0.441764	0.255889	0.0223689	0.856688	0.0370176	-0.221999	1.26955	0.161269	-0.238346	0.587167	0.245578	-0.247465	0.222441	0.247659	-0.352304	0.0723204	0.187018	-0.313255	1.1358	0.25735	-0.523791	0.999275	0.0489177	-0.588585	1.0102	0.0839185	-0.172793	0.0982685	-0.193999	-0.104264	1.16393	-0.152238	-0.196666	1.41241	-0.0769946	-0.400128	0.983208	-0.290385	-0.300615	1.48137	-0.0747363	-0.566246	1.07399	-0.0666683	-0.464535	0.963789	-0.232667	-0.114477	0.0581188	-0.116819	-0.343646	0.45531	-0.263108	0.0186889	0.851871	-0.0244227	-0.249751	1.26263	-0.18015	-0.149443	0.707774	-0.200141	-0.286125	0.336455	-0.269875	-0.336697	0.070902	-0.184217	-0.351354	1.06043	-0.274407	-0.504725	0.988987	-0.0669487	-0.569796	0.986508	-0.101452	-0.310687	1.02941	0.00207177	-0.057854	1.0798	-0.0113004
379	3.77242	-0.137799	1.28581	-0.0183767	-0.300096	1.20016	-0.00703695	-0.180362	0.0939482	0.214021	-0.109268	0.833644	0.162559	-0.201691	1.4192	0.0716282	-0.426051	1.00772	0.274213	-0.305647	1.49834	0.0545672	-0.562406	1.08353	0.0337588	-0.530248	0.98224	0.158496	-0.116729	0.0587912	0.151048	-0.368122	0.442265	0.25527	0.0208797	0.860038	0.0369469	-0.221051	1.27408	0.161247	-0.238918	0.588796	0.245352	-0.246438	0.222957	0.247434	-0.352263	0.0724361	0.187002	-0.31201	1.14009	0.257455	-0.522284	1.00156	0.0495109	-0.587141	1.01207	0.0846187	-0.172819	0.0982315	-0.193995	-0.103747	1.16779	-0.152217	-0.195468	1.41688	-0.0770152	-0.39828	0.987217	-0.290773	-0.299204	1.4861	-0.0748027	-0.565583	1.07549	-0.0665083	-0.462564	0.96717	-0.233249	-0.11451	0.0581489	-0.116838	-0.34277	0.455991	-0.262721	0.0172721	0.855256	-0.0244761	-0.248748	1.26731	-0.180369	-0.150773	0.710327	-0.200213	-0.285172	0.337093	-0.269535	-0.336696	0.0707774	-0.184309	-0.349963	1.06463	-0.274627	-0.503477	0.990924	-0.0675726	-0.568256	0.988495	-0.102148	-0.311139	1.03433	0.0019789	-0.0580757	1.08337	-0.0113443
380	3.7824	-0.137003	1.28986	-0.0184054	-0.299729	1.20509	-0.00713301	-0.180279	0.0939619	0.214027	-0.110949	0.837306	0.162567	-0.200612	1.42373	0.0716312	-0.423964	1.01119	0.274563	-0.3043	1.50313	0.054454	-0.561717	1.08506	0.0338287	-0.5283	0.984548	0.159205	-0.116687	0.0587712	0.151055	-0.367311	0.442732	0.254713	0.0193116	0.863414	0.0367569	-0.220147	1.27859	0.16124	-0.239478	0.590405	0.245105	-0.245867	0.223191	0.247615	-0.352185	0.072607	0.186994	-0.310777	1.14437	0.257551	-0.520747	1.00356	0.0501735	-0.585666	1.01366	0.0853884	-0.172865	0.0982135	-0.19401	-0.103261	1.17168	-0.152166	-0.194217	1.4213	-0.077093	-0.396389	0.991209	-0.291208	-0.297822	1.49083	-0.0748537	-0.564984	1.07682	-0.0662641	-0.46054	0.970488	-0.233867	-0.114541	0.058187	-0.116859	-0.341878	0.456706	-0.262335	0.0158089	0.858662	-0.0245656	-0.247789	1.27198	-0.180572	-0.152126	0.712918	-0.200248	-0.28421	0.337762	-0.269227	-0.33675	0.0705978	-0.184397	-0.348493	1.06884	-0.274901	-0.501864	0.992957	-0.0681276	-0.566594	0.990344	-0.102844	-0.311666	1.03919	0.00196033	-0.0583031	1.08693	-0.0113508
381	3.79238	-0.136226	1.29391	-0.0184141	-0.299391	1.20997	-0.00720121	-0.180191	0.0939568	0.214046	-0.112681	0.840933	0.162581	-0.199626	1.42822	0.0715039	-0.421751	1.0145	0.274948	-0.302997	1.50791	0.0543838	-0.560956	1.08643	0.0340152	-0.526276	0.986594	0.159975	-0.116659	0.0587455	0.151067	-0.366464	0.443201	0.25417	0.0178159	0.866929	0.0366437	-0.219305	1.28307	0.16124	-0.240026	0.591996	0.244829	-0.245698	0.223373	0.247506	-0.352096	0.0727503	0.186983	-0.30957	1.14864	0.257521	-0.519154	1.0053	0.0509268	-0.584136	1.01498	0.0862488	-0.172923	0.098215	-0.194039	-0.102803	1.17556	-0.152069	-0.193044	1.4257	-0.0771065	-0.394453	0.995167	-0.291683	-0.296466	1.49556	-0.0749326	-0.564421	1.07801	-0.0659006	-0.458407	0.97373	-0.23452	-0.11456	0.0582176	-0.116883	-0.340999	0.457443	-0.261926	0.0143137	0.862106	-0.0246848	-0.246874	1.27662	-0.180743	-0.153489	0.715568	-0.200275	-0.283302	0.338434	-0.268911	-0.336826	0.0704418	-0.184492	-0.346958	1.07304	-0.275209	-0.500039	0.994901	-0.0687036	-0.56479	0.992045	-0.103523	-0.312184	1.04409	0.00192911	-0.0585733	1.09046	-0.0113031
382	3.80236	-0.135514	1.298	-0.0183929	-0.299072	1.21482	-0.00724006	-0.180118	0.093941	0.214084	-0.114462	0.84454	0.162608	-0.198468	1.43263	0.0716491	-0.419451	1.01767	0.275382	-0.301728	1.51268	0.0543429	-0.560119	1.08754	0.0343176	-0.524154	0.988388	0.160831	-0.116621	0.0587372	0.151097	-0.365671	0.443734	0.253569	0.0163511	0.870496	0.0366088	-0.218524	1.28751	0.161235	-0.240563	0.593597	0.24454	-0.245643	0.223619	0.247039	-0.352033	0.072843	0.186985	-0.308478	1.1529	0.257312	-0.517488	1.00675	0.0517756	-0.582532	1.01603	0.0872046	-0.172913	0.098229	-0.194134	-0.102376	1.17944	-0.15197	-0.191941	1.4301	-0.0770426	-0.392418	0.999098	-0.292182	-0.29512	1.50029	-0.0749969	-0.563811	1.07898	-0.0653856	-0.456165	0.976926	-0.235202	-0.114577	0.0582219	-0.116909	-0.340106	0.458186	-0.261458	0.0127789	0.865552	-0.0247824	-0.245999	1.28124	-0.180873	-0.154874	0.71829	-0.200288	-0.282388	0.339106	-0.268551	-0.336856	0.0703728	-0.184582	-0.345353	1.07723	-0.27555	-0.498066	0.996696	-0.0692881	-0.56283	0.993612	-0.104168	-0.312671	1.04899	0.00187023	-0.0589365	1.09401	-0.0112315
383	3.81234	-0.134865	1.30212	-0.0183434	-0.298783	1.21965	-0.00724966	-0.180076	0.0939251	0.21413	-0.116197	0.848186	0.162515	-0.197419	1.43705	0.0717691	-0.417065	1.02074	0.275893	-0.300467	1.51746	0.0543425	-0.559171	1.08833	0.0347748	-0.521933	0.98998	0.161776	-0.116594	0.0587397	0.151131	-0.364887	0.44426	0.252979	0.0146913	0.873928	0.0366682	-0.217813	1.29189	0.161229	-0.241132	0.59523	0.244221	-0.24501	0.224051	0.246654	-0.352007	0.0728755	0.186984	-0.307669	1.15718	0.257067	-0.515733	1.00793	0.0527152	-0.580839	1.01679	0.0882512	-0.172817	0.0982368	-0.194291	-0.101916	1.18335	-0.151844	-0.190909	1.43452	-0.0769324	-0.390321	1.003	-0.292668	-0.293836	1.50503	-0.0750012	-0.562948	1.07949	-0.0647282	-0.453814	0.980074	-0.235884	-0.114583	0.0582191	-0.116932	-0.339244	0.458922	-0.260909	0.0112021	0.869015	-0.0248302	-0.245146	1.28586	-0.180966	-0.156297	0.721038	-0.200293	-0.281512	0.339721	-0.268116	-0.336831	0.0703679	-0.184661	-0.343718	1.08141	-0.275924	-0.49594	0.998333	-0.0698722	-0.560696	0.995025	-0.104769	-0.313084	1.0539	0.00179339	-0.0592974	1.09758	-0.0111309
